<?xml version="1.0" encoding="UTF-8" standalone="no"?>
<svg width="256px" height="256px" viewBox="0 0 256 256" version="1.1" xmlns="http://www.w3.org/2000/svg" xmlns:xlink="http://www.w3.org/1999/xlink" xmlns:sketch="http://www.bohemiancoding.com/sketch/ns">
    <!-- Generator: Sketch 3.5.1 (25234) - http://www.bohemiancoding.com/sketch -->
    <title>frameworks/logo_flask</title>
    <desc>Created with Sketch.</desc>
    <defs></defs>
    <g id="Page-1" stroke="none" stroke-width="1" fill="none" fill-rule="evenodd" sketch:type="MSPage">
        <g id="frameworks/logo_flask" sketch:type="MSArtboardGroup" fill="#000000">
            <path d="M99.5625,177.353712 C94.5029244,173.107868 88.8137422,169.082432 85.34375,163.161572 C76.7458889,153.418232 70.4474919,141.845147 66.203125,129.864629 C63.5390613,121.775024 62.6477197,113.296424 59.640625,105.30131 C55.7828903,100.171921 59.8940829,94.1356339 66.203125,92.2008734 C68.6278253,91.8635546 73.358661,89.3235377 67.296875,91.1091703 C62.5283295,94.8985647 62.032851,87.7263787 67.296875,87.2882096 C70.8655313,86.795582 72.1844419,83.8599991 71.125,81.2838428 C67.1132937,78.7071306 80.2850962,75.9483873 73.3125,72.0043668 C66.7534869,64.7475538 83.3149115,63.3123944 79.328125,72.0043668 C78.2509054,78.2899999 90.8013687,70.5860145 88.078125,78.5545852 C90.8491004,81.7150791 98.9728033,78.926247 99.015625,84.0131004 C103.082823,84.2882445 104.562564,87.9191585 108.3125,87.8340611 C112.804722,90.0939049 120.409121,91.5879659 121.984375,96.0218341 C117.674859,99.6167841 108.037931,89.5074312 107.765625,98.7510917 C108.832139,112.120382 108.51185,126.01132 113.78125,139.144105 C115.772707,146.628259 121.424932,152.749098 126.359375,158.79476 C131.413525,164.736074 138.029145,168.911258 144.40625,172.9869 C150.687111,175.219045 157.06416,177.070844 163.546875,178.445415 C166.125171,176.231144 170.741277,168.789482 174.484375,171.895197 C175.013642,175.453332 166.724385,179.298043 174.484375,178.445415 C178.954901,177.542174 182.093251,182.410734 185.421875,177.899563 C189.25208,182.089042 200.0874,175.419027 198,183.90393 C194.342098,185.870413 189.525146,184.581674 186.515625,187.179039 C180.762489,184.788942 176.419992,189.955407 170.109375,189.362445 C163.675649,190.504187 156.853441,190.989459 150.421875,191 C138.901,190.117975 127.511067,189.746182 116.515625,186.087336 C110.922952,184.120987 105.089713,180.714466 99.5625,177.353712 L99.5625,177.353712 Z M108.859375,181.720524 C115.041503,184.009433 120.764665,186.687249 127.453125,187.724891 C137.355768,188.915789 147.865015,191.101136 158.078125,189.362445 C153.455799,187.012549 148.677064,189.923912 144.40625,187.724891 C138.549117,188.802488 132.622281,187.305633 127.453125,186.087336 C120.622548,183.713777 113.732095,181.750668 107.765625,177.899563 C100.281547,175.305651 111.61691,181.557918 113.234375,181.720524 C118.305091,184.725394 108.498502,180.700148 106.671875,179.537118 C103.204157,177.391217 102.70563,177.851477 106.671875,180.082969 C107.538924,180.564539 108.339633,181.063252 108.859375,181.720524 L108.859375,181.720524 Z M98.46875,172.9869 C103.873613,175.183585 98.2228956,169.123538 95.734375,169.165939 C94.5026939,167.487539 91.2810602,166.231587 93.546875,165.344978 C89.4657235,166.587464 89.2713682,159.749094 87.53125,160.978166 C83.0252184,159.356029 85.6667081,154.502585 80.96875,151.69869 C80.0450712,148.38148 75.3971516,145.657487 74.40625,141.327511 C73.2599192,138.494961 68.6635265,131.53003 71.125,138.052402 C73.8912295,144.251901 78.121104,149.595662 81.515625,154.973799 C84.3744979,160.015386 87.601974,165.326739 92.453125,168.620087 C94.2578985,170.11205 95.8780538,172.58662 98.46875,172.9869 L98.46875,172.9869 Z M82.0625,154.973799 C82.2099156,154.527106 82.8349194,156.296841 82.0625,154.973799 L82.0625,154.973799 Z M104.484375,176.262009 C105.059044,175.653553 103.194776,175.544934 104.484375,176.262009 L104.484375,176.262009 Z M107.765625,176.80786 C107.503849,175.505118 106.694709,177.302247 107.765625,176.80786 L107.765625,176.80786 Z M112.140625,178.445415 C114.3483,177.563735 108.791464,177.889496 112.140625,178.445415 L112.140625,178.445415 Z M119.25,182.266376 C120.249041,181.256826 115.265053,181.885384 119.25,182.266376 L119.25,182.266376 Z M106.671875,173.532751 C109.643828,172.313059 102.127048,173.515891 106.671875,173.532751 L106.671875,173.532751 Z M108.3125,175.170306 C108.060218,174.706815 107.353147,175.755619 108.3125,175.170306 L108.3125,175.170306 Z M123.078125,183.358079 C125.231513,185.103809 136.658696,186.69906 129.640625,184.449782 C128.305918,184.540899 116.23517,181.247334 123.078125,183.358079 L123.078125,183.358079 Z M100.109375,165.89083 C99.8853417,165.199435 96.5326428,165.127508 100.109375,165.89083 L100.109375,165.89083 Z M107.21875,169.71179 C108.600432,168.893408 103.247771,169.08056 107.21875,169.71179 L107.21875,169.71179 Z M113.234375,173.532751 C115.932243,172.812158 108.56296,172.808839 113.234375,173.532751 L113.234375,173.532751 Z M97.375,163.707424 C99.9768873,165.427943 108.000454,163.561941 101.203125,162.069869 C98.3708538,160.316289 91.5825339,159.156937 96.28125,162.615721 L97.375,163.707424 L97.375,163.707424 L97.375,163.707424 Z M116.515625,175.170306 C117.576905,172.439907 111.235139,173.611077 116.515625,175.170306 L116.515625,175.170306 Z M109.953125,169.71179 C116.678065,171.773832 104.68192,165.66787 108.3125,169.71179 L109.40625,169.71179 L109.953125,169.71179 L109.953125,169.71179 L109.953125,169.71179 Z M121.984375,176.80786 C129.048151,176.584523 115.804259,175.893006 121.984375,176.80786 L121.984375,176.80786 L121.984375,176.80786 Z M95.1875,159.340611 C95.00783,158.2935 94.052323,159.240624 95.1875,159.340611 L95.1875,159.340611 Z M132.375,182.812227 C132.472964,181.535167 131.101352,183.405884 132.375,182.812227 L132.375,182.812227 Z M105.578125,165.89083 C105.36237,164.890937 104.463582,165.688049 105.578125,165.89083 L105.578125,165.89083 Z M95.734375,158.79476 C98.6384754,158.638586 91.1517864,157.648753 95.734375,158.79476 L95.734375,158.79476 Z M83.703125,151.69869 C83.1718569,149.65738 79.0584781,148.029292 83.703125,151.69869 L83.703125,151.69869 Z M114.875,170.803493 C114.114747,170.465737 114.376498,171.151414 114.875,170.803493 L114.875,170.803493 Z M134.5625,183.358079 C134.334234,182.271795 133.582614,183.456942 134.5625,183.358079 L134.5625,183.358079 Z M113.78125,168.620087 C114.188359,167.569684 109.919685,168.302055 113.78125,168.620087 L113.78125,168.620087 Z M99.015625,159.340611 C101.729096,159.161163 94.3497295,158.207623 99.015625,159.340611 L99.015625,159.340611 Z M123.078125,174.624454 C127.437867,173.673004 119.860769,174.159974 123.078125,174.624454 L123.078125,174.624454 Z M110.5,166.982533 C115.915777,167.578058 104.618859,163.3792 109.953125,166.436681 L110.5,166.982533 L110.5,166.982533 L110.5,166.982533 Z M127.453125,177.353712 C131.74546,174.302208 130.260667,183.288141 135.109375,177.899563 C139.441583,174.425803 130.945384,181.86061 136.203125,178.445415 C140.627736,175.628797 146.629686,179.62986 150.421875,180.628821 C153.148064,180.801563 155.79883,183.290151 158.078125,181.720524 C163.975155,180.328638 148.071711,179.629239 152.609375,177.353712 C147.316891,178.492212 143.679073,175.354788 141.671875,171.895197 C135.733399,170.931266 129.347662,168.111208 126.90625,163.161572 C125.467508,161.396992 128.21482,163.487982 125.265625,160.432314 C122.29321,157.535733 120.631436,154.179889 118.15625,150.606987 C115.728479,149.164312 115.417554,144.978766 114.875,150.061135 C115.168896,146.995546 111.925431,144.673157 111.59375,145.694323 C111.119575,142.315575 114.604886,143.981249 112.140625,141.327511 C111.63991,138.078502 109.91082,134.48963 109.40625,130.41048 C108.583605,128.726614 109.277387,124.712046 106.125,128.772926 C105.672437,133.439842 106.31558,123.444379 107.765625,126.58952 C109.777513,123.377111 107.107182,123.772685 107.21875,124.406114 C108.277743,121.40189 107.807909,117.376616 106.125,118.401747 C107.345846,115.904479 107.741296,107.842862 105.578125,109.122271 C106.914952,106.126276 108.055184,94.8796325 102.84375,98.7510917 C100.295851,99.1989915 96.4206779,99.9789099 94.640625,100.934498 C100.33231,104.050693 94.0111923,102.030639 91.90625,102.026201 C91.3686086,104.453833 89.0529163,103.188463 85.890625,103.117904 C90.7806892,103.788127 83.9097191,107.937166 81.515625,106.393013 C77.8162044,107.968809 84.2300113,112.070829 81.515625,113.489083 C81.684611,115.251236 76.0537603,112.648607 76.59375,117.310044 C73.1538136,115.660161 76.0357856,122.302506 77.6875,120.039301 C83.3922989,121.592541 81.7095734,125.095635 81.515625,128.227074 C80.928131,130.362305 77.2816268,123.865529 80.96875,124.406114 C78.075396,119.353022 77.7603903,122.426591 74.953125,124.406114 C74.7215348,124.825082 81.5835278,127.844289 77.140625,129.864629 C81.0658873,129.921051 81.1736765,133.232274 82.0625,135.323144 C84.2221054,137.696397 83.7560441,132.711936 86.4375,135.323144 C84.7565279,133.022543 77.3478991,128.412923 83.15625,129.864629 C83.2809552,127.338822 82.2340273,125.280534 83.703125,125.497817 C85.8712661,122.057157 82.1661607,133.401097 85.890625,128.772926 C87.3746313,128.748544 87.6543242,125.963534 89.71875,129.864629 C92.6320961,132.400496 90.7488928,134.499371 86.4375,132.048035 C87.3343334,134.367957 92.1534263,135.268785 90.8125,139.144105 C92.2078539,142.67784 93.5510526,141.400855 94.640625,141.327511 C95.6403141,144.569066 96.1618537,142.092025 96.28125,140.781659 C100.410714,141.388059 99.4257,143.870779 100.65625,145.694323 C103.639315,146.911675 96.5937735,136.750502 101.203125,142.965066 C106.803018,147.269702 103.531786,149.239888 99.015625,148.423581 C101.807536,148.243899 102.766268,152.497926 106.125,152.244541 C109.875992,153.959649 112.171901,160.147915 106.125,157.157205 C104.299455,155.746251 97.1252217,153.494097 102.84375,156.611354 C108.396928,159.46968 112.695324,160.967094 118.15625,164.253275 C121.650536,166.772452 123.264421,169.823009 124.71875,170.803493 C121.540694,171.924551 115.218841,169.230924 120.34375,168.620087 C116.985196,167.872736 113.691925,166.393912 116.515625,169.71179 C118.881251,172.026077 124.94538,171.815403 126.359375,171.895197 C125.111021,174.068529 123.529571,174.229796 126.359375,174.078603 C123.235834,175.89566 126.979103,176.129251 127.453125,177.353712 L127.453125,177.353712 Z M121.984375,160.978166 C120.143445,158.709702 119.720168,155.422104 121.984375,158.79476 C122.397275,158.6564 124.396859,163.65526 121.984375,160.978166 L121.984375,160.978166 L121.984375,160.978166 Z M140.578125,172.9869 C141.382053,172.937877 140.601477,173.599454 140.578125,172.9869 L140.578125,172.9869 Z M118.703125,156.065502 C118.657074,152.797808 119.172723,158.423512 118.703125,156.065502 L118.703125,156.065502 Z M117.609375,153.882096 C114.676067,149.911631 120.321785,154.801809 117.609375,153.882096 L117.609375,153.882096 Z M94.640625,137.50655 C95.5919175,137.325835 95.1086466,138.805263 94.640625,137.50655 L94.640625,137.50655 Z M112.140625,148.423581 C112.725546,145.201419 112.828003,150.852424 112.140625,148.423581 L112.140625,148.423581 Z M99.5625,139.144105 C99.1043512,137.91107 100.886531,139.800983 99.5625,139.144105 L99.5625,139.144105 Z M111.046875,142.965066 C108.183797,137.528274 112.627771,139.860759 111.59375,143.510917 L111.046875,142.965066 L111.046875,142.965066 L111.046875,142.965066 Z M91.90625,129.318777 C90.8914494,127.890752 89.3075846,123.548343 89.71875,122.222707 C90.278792,124.381641 94.7008555,131.51368 91.90625,124.951965 C88.9872077,119.865387 95.5720502,126.901237 96.28125,128.227074 C96.5648036,129.544063 94.3988211,127.866025 95.734375,130.956332 C93.1900035,127.43793 94.2864428,132.899817 91.90625,129.318777 L91.90625,129.318777 Z M85.890625,125.497817 C86.070513,122.176279 86.8910027,127.751756 85.890625,125.497817 L85.890625,125.497817 Z M88.625,126.58952 C90.222253,123.712273 91.3332949,131.174488 88.625,126.58952 L88.625,126.58952 Z M82.0625,121.131004 C79.9420492,119.523736 78.3540969,117.566873 82.0625,120.585153 C83.7360105,120.385931 78.9132005,115.879027 82.609375,118.401747 C86.4758977,119.585959 84.513717,125.085455 82.0625,121.131004 L82.0625,121.131004 Z M85.34375,121.676856 C86.275421,121.013663 85.8383551,122.8681 85.34375,121.676856 L85.34375,121.676856 Z M88.625,122.222707 C85.6597444,118.244652 91.3166656,123.473476 88.625,122.222707 L88.625,122.222707 Z M83.15625,117.855895 C77.113971,113.142843 90.5842416,120.299263 83.703125,118.947598 L83.15625,117.855895 L83.15625,117.855895 L83.15625,117.855895 Z M102.296875,128.772926 C99.1446307,127.306106 101.390602,117.119832 102.296875,123.860262 C105.403354,123.201967 102.268668,127.684449 104.484375,127.681223 C104.135182,130.471125 103.143934,131.487904 102.296875,128.772926 L102.296875,128.772926 Z M108.3125,133.139738 C108.51323,129.816992 108.734955,135.390996 108.3125,133.139738 L108.3125,133.139738 Z M107.21875,132.048035 C107.444095,131.417108 107.242047,133.301722 107.21875,132.048035 L107.21875,132.048035 Z M84.25,116.764192 C80.421363,111.299673 95.8156358,122.068527 86.984375,118.401747 C85.9533405,117.770794 84.8306722,117.685005 84.25,116.764192 L84.25,116.764192 Z M97.375,123.860262 C97.1443134,118.653946 98.0739725,124.625081 97.375,123.860262 L97.375,123.860262 L97.375,123.860262 Z M107.21875,129.864629 C107.785848,126.528914 107.261023,132.085866 107.21875,129.864629 L107.21875,129.864629 Z M85.34375,114.034934 C87.8014527,113.588492 95.5288377,118.042236 88.625,115.672489 C87.644156,114.541323 85.9632955,114.906108 85.34375,114.034934 L85.34375,114.034934 Z M106.125,124.951965 C106.318025,119.593753 107.203098,121.673497 106.125,125.497817 L106.125,124.951965 L106.125,124.951965 L106.125,124.951965 Z M86.984375,112.943231 C88.2359397,111.542376 84.5924337,106.269793 88.078125,111.305677 C89.1346716,112.263463 91.7322519,113.016366 89.171875,113.489083 C93.0457715,116.743442 88.5590938,114.368279 86.984375,112.943231 L86.984375,112.943231 Z M105.03125,123.860262 C105.539581,117.869709 105.479529,127.010703 105.03125,123.860262 L105.03125,123.860262 Z M85.34375,107.484716 C85.9057767,107.28352 85.6405642,108.270715 85.34375,107.484716 L85.34375,107.484716 Z M89.71875,110.759825 C91.2248145,107.731977 92.4970382,113.396219 89.71875,110.759825 L89.71875,110.759825 Z M102.84375,117.855895 C102.834573,117.311324 103.030043,119.086897 102.84375,117.855895 L102.84375,117.855895 Z M101.75,115.672489 C100.512842,110.955937 102.406033,118.175136 101.75,115.672489 L101.75,115.672489 Z M101.203125,114.034934 C101.008334,111.104183 102.018431,116.740444 101.203125,114.034934 L101.203125,114.034934 L101.203125,114.034934 Z M102.84375,109.668122 C101.786769,107.427896 104.991194,99.9831136 105.03125,104.755459 C103.854087,108.197922 104.917584,110.210502 106.125,105.30131 C107.885859,101.587429 105.544346,112.879059 102.84375,109.668122 L102.84375,109.668122 L102.84375,109.668122 Z M105.03125,98.7510917 C105.440493,98.3841562 105.12208,99.4900531 105.03125,98.7510917 L105.03125,98.7510917 Z M101.203125,160.432314 C100.87916,160.10874 101.50551,160.901906 101.203125,160.432314 L101.203125,160.432314 Z M107.765625,163.707424 C111.341248,164.231782 111.323342,162.989751 108.3125,162.615721 C106.454757,161.258012 101.081821,159.812558 106.125,162.615721 C106.209363,163.145724 107.215772,163.129554 107.765625,163.707424 L107.765625,163.707424 Z M95.1875,156.065502 C96.9102337,157.337628 102.380643,160.111191 97.375,156.065502 C99.3110984,154.540583 94.7613433,153.550306 95.734375,152.244541 C92.4317512,149.896639 93.242287,150.11095 95.734375,150.061135 C91.3181566,148.071774 96.5977095,148.22998 96.828125,147.331878 C94.5701468,146.785915 87.5129993,143.929097 91.90625,147.331878 C87.4442207,145.173946 90.6589363,148.20307 89.71875,147.877729 C85.0675951,146.675981 93.2266846,151.253937 88.625,150.061135 C91.173787,152.129796 95.3621928,155.271931 89.71875,152.244541 C89.0044815,153.339731 93.7646179,154.996011 95.1875,156.065502 L95.1875,156.065502 Z M101.75,159.886463 C110.46255,162.294821 97.9410816,156.650295 101.75,159.886463 L101.75,159.886463 Z M136.75,180.628821 C136.63874,179.376022 135.719443,181.260978 136.75,180.628821 L136.75,180.628821 Z M141.125,182.812227 C142.601245,180.709819 140.769804,185.501662 143.859375,181.720524 C143.889146,179.6742 143.760759,178.238148 140.03125,181.174672 C139.358082,181.718547 138.933341,183.959281 141.125,182.812227 L141.125,182.812227 Z M83.703125,146.786026 C83.0500701,144.596952 79.1256201,144.608295 83.703125,146.786026 L83.703125,146.786026 Z M88.078125,148.969432 C86.5857318,146.67895 82.7532627,146.895792 88.078125,148.969432 L88.078125,148.969432 Z M109.40625,161.524017 C111.403441,163.817762 119.047822,163.293532 112.140625,162.615721 C110.795399,160.451305 105.100078,160.845973 109.40625,161.524017 L109.40625,161.524017 Z M138.390625,181.174672 C142.755819,177.201702 135.179043,182.482322 138.390625,181.174672 L138.390625,181.174672 Z M145.5,184.995633 C145.430017,184.57916 144.368412,185.517375 145.5,184.995633 L145.5,184.995633 Z M144.953125,183.90393 C149.318228,180.121658 141.741499,184.11801 144.953125,183.90393 L144.953125,183.90393 L144.953125,183.90393 Z M74.40625,139.144105 C71.2902905,134.742716 72.4692827,132.764327 68.9375,128.772926 C68.8955767,126.422333 64.309508,120.186098 66.75,126.58952 C69.6413897,130.656906 70.3988338,136.639516 74.40625,139.144105 L74.40625,139.144105 Z M144.40625,182.266376 C150.503989,178.351869 141.802793,180.561216 144.40625,182.266376 L144.40625,182.266376 Z M149.875,184.449782 C152.686335,181.139427 147.144016,183.7574 149.875,184.449782 L149.875,184.449782 Z M82.0625,141.873362 C82.4563647,140.774111 80.7328127,141.69208 82.0625,141.873362 L82.0625,141.873362 Z M148.78125,183.90393 C152.729307,181.599009 148.05306,181.923088 148.234375,183.90393 L148.78125,183.90393 L148.78125,183.90393 L148.78125,183.90393 Z M104.484375,155.519651 C104.406859,154.375779 103.29362,155.506401 104.484375,155.519651 L104.484375,155.519651 Z M107.765625,157.157205 C107.197154,155.858148 106.891598,157.339154 107.765625,157.157205 L107.765625,157.157205 Z M153.15625,184.449782 C157.196325,181.123694 151.414221,183.755671 152.609375,184.995633 L153.15625,184.449782 L153.15625,184.449782 L153.15625,184.449782 Z M152.609375,184.449782 C155.798597,180.476163 148.223661,185.751306 152.609375,184.449782 L152.609375,184.449782 Z M160.265625,189.362445 C162.683155,188.323506 157.02651,189.026381 160.265625,189.362445 L160.265625,189.362445 Z M84.796875,140.235808 C87.6907639,141.229439 96.6503436,147.780548 91.359375,141.327511 C88.657408,140.242635 90.2809703,133.766706 86.984375,134.777293 C89.3730409,137.942866 89.0445289,139.232535 84.796875,137.50655 C80.2624633,134.985942 82.40476,138.48011 83.703125,139.689956 C82.0580412,139.732779 85.0834811,140.54943 84.796875,140.235808 L84.796875,140.235808 Z M70.03125,129.318777 C70.4560025,127.240226 65.7968889,117.883813 67.84375,124.406114 C68.5223383,126.043818 68.4488432,128.722256 70.03125,129.318777 L70.03125,129.318777 Z M95.734375,145.694323 C94.5555713,144.642672 95.6603665,145.473867 95.734375,145.694323 L95.734375,145.694323 Z M100.65625,146.786026 C100.653949,143.803424 95.7355258,145.574851 100.65625,146.786026 L100.65625,146.786026 Z M133.46875,166.436681 C132.648726,165.227701 130.227587,166.40466 133.46875,166.436681 L133.46875,166.436681 L133.46875,166.436681 Z M134.5625,167.528384 C134.187803,167.126822 133.677503,167.931375 134.5625,167.528384 L134.5625,167.528384 Z M148.234375,176.80786 C148.850441,175.896161 146.967471,176.503104 148.234375,176.80786 L148.234375,176.80786 Z M78.234375,130.956332 C81.4088166,130.112466 73.8355971,130.354595 78.234375,130.956332 L78.234375,130.956332 Z M129.640625,164.253275 C129.619341,162.934124 128.420868,164.527312 129.640625,164.253275 L129.640625,164.253275 Z M76.59375,127.681223 C79.2150695,126.918191 73.5360788,127.117716 76.59375,127.681223 L76.59375,127.681223 Z M83.15625,130.956332 C83.3685235,130.596004 82.8676757,131.386184 83.15625,130.956332 L83.15625,130.956332 Z M165.734375,182.266376 C168.671623,181.314531 175.558722,183.512355 176.671875,180.628821 C173.001715,181.030806 163.973999,178.476158 163.546875,181.720524 L164.09375,181.720524 L165.734375,182.266376 L165.734375,182.266376 L165.734375,182.266376 Z M84.796875,131.502183 C84.8311501,130.296844 83.5499819,131.457165 84.796875,131.502183 L84.796875,131.502183 Z M67.84375,120.039301 C66.9960092,115.490811 64.6194649,119.350903 67.84375,120.039301 L67.84375,120.039301 Z M71.125,120.585153 C71.1743682,119.819498 67.4094038,119.896214 71.125,120.585153 L71.125,120.585153 Z M73.859375,121.676856 C73.1410253,121.366373 73.2542612,122.320068 73.859375,121.676856 L73.859375,121.676856 Z M89.171875,131.502183 C89.5918523,130.788036 87.8435371,130.915018 89.171875,131.502183 L89.171875,131.502183 Z M72.765625,119.49345 C72.3718383,116.079405 68.0468859,118.981926 72.765625,119.49345 L72.765625,119.49345 Z M63.46875,113.489083 C63.1316187,112.205697 62.5932716,113.822127 63.46875,113.489083 L63.46875,113.489083 Z M65.109375,112.39738 C64.810105,111.108032 64.1410117,112.546791 65.109375,112.39738 L65.109375,112.39738 Z M72.765625,117.310044 C75.5883574,115.970411 67.3518504,114.539066 72.21875,117.310044 L72.765625,117.310044 L72.765625,117.310044 Z M167.375,175.716157 C169.754525,174.669313 164.111442,175.392495 167.375,175.716157 L167.375,175.716157 Z M178.859375,181.174672 C179.260809,179.883781 177.529952,181.328974 178.859375,181.174672 L178.859375,181.174672 Z M72.21875,112.39738 C72.3746916,111.087474 70.9250169,112.62267 72.21875,112.39738 L72.21875,112.39738 Z M62.921875,106.393013 C62.3975158,103.261825 62.4723194,97.7656959 67.84375,99.8427948 C60.7208385,101.007683 72.5357907,108.290874 71.125,102.572052 C73.9797058,102.684114 76.7871251,100.807524 75.5,103.663755 C81.0310194,103.017259 85.0414242,98.0073006 90.8125,98.2052402 C94.9814448,98.1340733 99.7402569,97.6977754 104.484375,96.0218341 C108.286909,95.6704355 111.999152,91.5235883 109.953125,88.9257642 C104.626462,88.6212425 99.121487,89.2784192 93.546875,90.5633188 C86.86785,91.7697165 81.0171959,94.3106183 74.40625,95.4759825 C68.1837376,96.2511834 75.7924568,97.7429438 73.859375,98.2052402 C70.6725052,99.2207895 77.920018,99.9932488 73.859375,101.480349 C70.8502709,100.688236 68.0407692,99.7619571 69.484375,97.1135371 C63.1257716,97.7074282 57.7937696,100.222757 62.921875,106.393013 L62.921875,106.393013 L62.921875,106.393013 L62.921875,106.393013 Z M77.6875,99.2969432 C79.091822,94.5083758 85.2111208,102.797491 79.875,99.8427948 C79.3655456,99.2493491 78.3397642,98.9146287 77.6875,99.2969432 L77.6875,99.2969432 Z M77.6875,96.5676856 C80.481445,95.2766526 79.1727413,97.0470767 77.6875,96.5676856 L77.6875,96.5676856 Z M79.875,97.1135371 C80.0442762,94.5144693 85.3255122,98.0170062 80.421875,97.6593886 L79.875,97.1135371 L79.875,97.1135371 L79.875,97.1135371 Z M83.703125,94.930131 C84.6708099,93.6857672 83.9812766,95.5734231 83.703125,94.930131 L83.703125,94.930131 Z M85.34375,94.930131 C87.3862954,92.3926824 96.9108689,93.2742185 89.71875,94.930131 C88.070553,93.1949713 86.6381447,95.4152822 85.34375,94.930131 L85.34375,94.930131 Z M97.375,92.2008734 C97.0699801,86.109878 103.668582,94.5875797 97.375,92.2008734 L97.375,92.2008734 Z M101.75,91.6550218 C103.05986,88.6091656 106.833092,90.5342679 102.296875,91.6550218 C102.45336,91.5205401 102.224862,92.8383093 101.75,91.6550218 L101.75,91.6550218 Z M72.21875,111.305677 C75.402448,108.970379 67.8281085,109.279631 72.21875,111.305677 L72.21875,111.305677 L72.21875,111.305677 Z M74.953125,111.851528 C76.2920764,110.857076 70.9760906,111.448172 74.953125,111.851528 L74.953125,111.851528 Z M65.65625,105.30131 C68.0954716,104.293275 62.4321626,104.918052 65.65625,105.30131 L65.65625,105.30131 Z M185.421875,181.174672 C185.467918,179.850692 184.169671,181.613655 185.421875,181.174672 L185.421875,181.174672 Z M173.390625,172.441048 C173.570857,171.167395 172.139668,172.545151 173.390625,172.441048 L173.390625,172.441048 Z M189.25,181.174672 C192.079915,181.180581 198.591979,180.62707 191.984375,180.628821 C190.516543,180.722707 185.229578,180.702573 189.25,181.174672 L189.25,181.174672 L189.25,181.174672 Z M77.6875,110.213974 C80.0201871,110.017498 81.4370122,107.443459 77.140625,107.484716 C70.1876765,106.889506 83.0578553,109.912897 76.59375,109.122271 C75.2196002,109.658075 77.4566342,110.357105 77.6875,110.213974 L77.6875,110.213974 Z M79.875,111.851528 C79.4446257,110.536164 79.0421372,112.341781 79.875,111.851528 L79.875,111.851528 Z M82.0625,104.755459 C82.6486456,103.692332 80.7785038,104.465804 82.0625,104.755459 L82.0625,104.755459 Z M73.3125,89.4716157 C78.00915,87.7045228 84.452815,85.9629984 86.984375,90.0174672 C84.413397,87.3826281 85.7639076,84.7887814 87.53125,88.3799127 C90.9265802,92.5388776 92.4404766,86.8683196 90.8125,85.650655 C92.7150192,88.2535466 95.2643951,89.5259052 91.90625,85.650655 C95.5495471,81.5731825 84.8155797,86.2756046 82.609375,86.1965066 C81.201962,86.7376543 70.2566666,88.9269976 73.3125,89.4716157 L73.3125,89.4716157 Z M76.59375,85.1048035 C78.5437577,82.9427616 84.7415057,86.3169287 80.421875,82.9213974 C80.37561,82.5739191 72.054666,85.5045964 76.59375,85.1048035 L76.59375,85.1048035 Z M86.4375,84.558952 C89.3979876,84.6300861 84.7825121,80.7604956 88.625,82.3755459 C87.9939328,80.7066741 84.1512656,80.3683347 82.0625,79.6462882 C81.2100639,81.2986314 84.4354386,84.5801643 86.4375,84.558952 L86.4375,84.558952 Z M77.6875,75.8253275 C78.2011161,74.5683896 76.3753478,76.2196477 77.6875,75.8253275 L77.6875,75.8253275 Z M81.515625,78.0087336 C86.5335418,77.0514391 80.7294814,74.9005465 80.96875,78.0087336 L81.515625,78.0087336 L81.515625,78.0087336 L81.515625,78.0087336 Z M74.953125,70.9126638 C70.9998387,66.6169498 80.9941424,71.6347601 77.6875,67.0917031 C74.5022914,64.8962224 71.6513076,69.6586329 74.953125,70.9126638 L74.953125,70.9126638 Z M120.34375,96.0218341 C121.519943,93.1428141 114.571647,92.1497288 119.25,94.930131 C119.683252,95.1565544 119.585717,96.1943756 120.34375,96.0218341 L120.34375,96.0218341 Z" id="flask" sketch:type="MSShapeGroup"></path>
        </g>
    </g>
</svg>