<?xml version="1.0" encoding="utf-8"?>
<!-- Generator: Adobe Illustrator 22.0.0, SVG Export Plug-In . SVG Version: 6.00 Build 0)  -->
<svg version="1.1" id="Layer_1" xmlns="http://www.w3.org/2000/svg" xmlns:xlink="http://www.w3.org/1999/xlink" x="0px" y="0px"
	 viewBox="0 0 508 508" style="enable-background:new 0 0 508 508;" xml:space="preserve">
<style type="text/css">
	.st0{fill:#B5CA8D;}
	.st1{fill:#84DBFF;}
	.st2{fill:#8BB174;}
	.st3{fill:#54C0EB;}
	.st4{fill:#324A5E;}
	.st5{fill:#FFFFFF;}
	.st6{fill:#E6E9EE;}
	.st7{fill:#ACB3BA;}
</style>
<g id="XMLID_1_">
	<g>
		<path class="st0" d="M508,254c0,60.3-21,115.6-56.1,159.2H56.1C21,369.6,0,314.3,0,254C0,113.7,113.7,0,254,0S508,113.7,508,254z"
			/>
		<path class="st1" d="M451.9,413.2L451.9,413.2c-39.6,49.2-96.8,83.1-162.1,92.3C355.1,496.3,412.4,462.2,451.9,413.2z"/>
		<path class="st2" d="M56.1,413.2h395.8c-39.5,49-96.8,83.1-162.1,92.3c-0.3,0-0.6,0.1-0.9,0.1c-0.9,0.1-1.7,0.2-2.6,0.3
			c-2.1,0.3-4.2,0.5-6.4,0.7c-1.1,0.1-2.1,0.2-3.2,0.3c-0.7,0.1-1.4,0.1-2.1,0.2c-0.6,0-1.1,0.1-1.6,0.1c-1,0.1-2,0.2-3.1,0.2
			c-0.6,0-1.3,0.1-2,0.1c-0.6,0-1.1,0.1-1.7,0.1c-0.7,0-1.5,0.1-2.2,0.1c-0.9,0-1.8,0.1-2.7,0.1c-1.2,0-2.4,0.1-3.7,0.1
			c-1.2,0-2.5,0-3.7,0s-2.5,0-3.7,0c-1.2,0-2.4,0-3.7-0.1c-0.9,0-1.8-0.1-2.7-0.1c-0.7,0-1.5-0.1-2.2-0.1c-0.6,0-1.1-0.1-1.7-0.1
			c-0.7,0-1.3-0.1-2-0.1c-1,0-2.1-0.1-3.1-0.2c-0.6,0-1.1-0.1-1.7-0.1c-0.7-0.1-1.4-0.1-2.1-0.2c-1.1-0.1-2.1-0.2-3.2-0.3
			c-2.1-0.2-4.3-0.5-6.4-0.7c-0.9-0.1-1.7-0.2-2.6-0.3c-0.3,0-0.6-0.1-0.9-0.1C152.9,496.3,95.6,462.2,56.1,413.2z"/>
		<path class="st1" d="M286.4,506c0.9-0.1,1.7-0.2,2.6-0.3C288.1,505.7,287.2,505.9,286.4,506z"/>
		<path class="st1" d="M286.4,506c-2.1,0.3-4.2,0.5-6.4,0.7C282.1,506.5,284.2,506.2,286.4,506z"/>
		<path class="st1" d="M274.7,507.2c0.7-0.1,1.4-0.1,2.1-0.2C276.1,507.1,275.4,507.1,274.7,507.2z"/>
		<path class="st3" d="M273,507.3c0.5,0,1.1-0.1,1.6-0.1C274.1,507.2,273.6,507.3,273,507.3z"/>
		<path class="st1" d="M268,507.6c0.7,0,1.3-0.1,2-0.1C269.3,507.5,268.6,507.6,268,507.6z"/>
		<path class="st3" d="M266.3,507.7c0.6,0,1.1-0.1,1.7-0.1C267.4,507.6,266.9,507.7,266.3,507.7z"/>
		<path class="st1" d="M264.1,507.8c0.7,0,1.5-0.1,2.2-0.1C265.5,507.7,264.8,507.8,264.1,507.8z"/>
		<path class="st3" d="M257.7,508c1.2,0,2.5,0,3.7-0.1C260.2,507.9,259,508,257.7,508z"/>
		<path class="st3" d="M254,508c1.2,0,2.5,0,3.7,0C256.5,508,255.2,508,254,508z"/>
		<path class="st3" d="M250.3,508c1.2,0,2.5,0,3.7,0C252.8,508,251.5,508,250.3,508z"/>
		<path class="st3" d="M246.6,507.9c1.2,0,2.4,0.1,3.7,0.1C249,508,247.8,507.9,246.6,507.9z"/>
		<path class="st1" d="M241.7,507.7c0.7,0,1.5,0.1,2.2,0.1C243.2,507.8,242.4,507.7,241.7,507.7z"/>
		<path class="st3" d="M240,507.6c0.6,0,1.1,0.1,1.7,0.1C241.1,507.7,240.6,507.6,240,507.6z"/>
		<path class="st1" d="M238.1,507.5c0.7,0,1.3,0.1,2,0.1C239.4,507.6,238.7,507.5,238.1,507.5z"/>
		<path class="st3" d="M233.3,507.2c0.6,0,1.1,0.1,1.7,0.1C234.4,507.3,233.9,507.2,233.3,507.2z"/>
		<path class="st1" d="M231.2,507c0.7,0.1,1.4,0.1,2.1,0.2C232.6,507.1,231.9,507.1,231.2,507z"/>
		<path class="st1" d="M221.6,506c2.1,0.3,4.2,0.5,6.4,0.7C225.9,506.5,223.8,506.2,221.6,506z"/>
		<path class="st1" d="M219.1,505.6c0.9,0.1,1.7,0.2,2.6,0.3C220.8,505.9,219.9,505.7,219.1,505.6z"/>
		<path class="st1" d="M218.2,505.5c-65.3-9.2-122.5-43.1-162.2-92.3h0.1C95.6,462.2,152.9,496.3,218.2,505.5z"/>
	</g>
	<g>
	</g>
</g>
<path class="st4" d="M292.8,114.4c-0.8,3.6-2.4,7.6-4.4,10.8l65.6,64.4c3.2-2.4,6.8-4,10.8-4.4L292.8,114.4z M274.8,138.8l-8,7.6
	l77.2,62.8c0.8-4.4,2-8,3.6-11.2L274.8,138.8z"/>
<path class="st5" d="M284.4,129.6l-82.8,79.6l-17.2-22c-7.2-9.2-17.6-14.8-28.4-15.6l87.2-84.4c11.6-11.2,30.4-10.8,41.6,0.8
	c4.8,5.2,7.6,11.2,8,17.6C294,114.4,290.8,123.2,284.4,129.6z"/>
<path class="st4" d="M244,263.2c-1.2,0-60,22-65.2,51.2l-59.6-76c-14-18-10.8-44,6.8-58c18-14,44-10.8,58,7.2L244,263.2z"/>
<path class="st5" d="M144,404.4v8.8h192v-8.8c0-8.4-6.8-15.6-15.6-15.6H159.6C150.8,389.2,144,396,144,404.4z"/>
<path class="st4" d="M161.6,382v6.8h156.8V382c0-6.8-5.6-12-12.8-12H174.4C167.2,370,161.6,375.6,161.6,382z"/>
<path class="st5" d="M240,262.8c-34,0-62,28-62,62V370h124v-45.2C302,290.8,274,262.8,240,262.8z"/>
<circle class="st6" cx="240" cy="324" r="13.6"/>
<circle class="st7" cx="152.4" cy="215.2" r="23.6"/>
<circle class="st6" cx="263.2" cy="110.4" r="16.8"/>
<path class="st4" d="M386.8,279.6c0,10-1.2,21.2-3.6,30.4h-9.6v-21.2c3.6-1.6,6-4.8,6-8.8c0-5.2-4.4-9.6-9.6-9.6s-9.6,4.4-9.6,9.6
	c0,4,2.4,7.6,6,8.8V310h-9.6c-2.4-9.6-3.6-20.4-3.6-30.4c0-6.8,0.4-12,1.6-16.4h30C386,267.6,386.8,273.2,386.8,279.6z"/>
<path class="st5" d="M391.6,263.2c3.6-12,5.6-26.4,5.6-39.2c0-30.8-12.4-39.6-27.2-39.6c-15.2,0-27.2,8.8-27.2,39.6
	c0,12.8,2,27.2,5.6,39.2L391.6,263.2L391.6,263.2z"/>
<circle class="st6" cx="370" cy="214.8" r="9.2"/>
</svg>
