<?xml version="1.0" ?><!DOCTYPE svg  PUBLIC '-//W3C//DTD SVG 1.1//EN'  'http://www.w3.org/Graphics/SVG/1.1/DTD/svg11.dtd'><svg height="2048px" style="shape-rendering:geometricPrecision; text-rendering:geometricPrecision; image-rendering:optimizeQuality; fill-rule:evenodd; clip-rule:evenodd" viewBox="0 0 2048 2048" width="2048px" xml:space="preserve" xmlns="http://www.w3.org/2000/svg" xmlns:xlink="http://www.w3.org/1999/xlink"><defs><style type="text/css">
   <![CDATA[
    .fil2 {fill:none}
    .fil0 {fill:none;fill-rule:nonzero}
    .fil1 {fill:#424242}
   ]]>
  </style></defs><g id="Layer_x0020_1"><line class="fil0" x1="584.053" x2="584.054" y1="1583.52" y2="1583.52"/><line class="fil0" x1="712.874" x2="712.871" y1="1650.39" y2="1650.39"/><line class="fil0" x1="698.728" x2="698.729" y1="1621.8" y2="1621.8"/><line class="fil0" x1="1468.84" x2="1468.84" y1="1425.67" y2="1425.67"/><line class="fil0" x1="942.276" x2="942.275" y1="441.252" y2="441.25"/><line class="fil0" x1="970.865" x2="970.865" y1="427.106" y2="427.107"/><line class="fil0" x1="441.252" x2="441.25" y1="1105.73" y2="1105.73"/><line class="fil0" x1="427.105" x2="427.106" y1="1077.14" y2="1077.14"/><path class="fil1" d="M940.586 429.198l0 0zm-672.054 624.402l0 0zm160.665 53.817l0 0zm116.575 502.115l0 0zm160.667 53.817l0 0zm400.982 -44.5441l0 0zm341.44 -170.387l0 0zm160.669 53.8099l0 0zm-161.117 -903.087c29.5477,-14.7331 50.3681,-40.18 60.1075,-69.3024 8.85237,-26.4673 8.55709,-56.0126 -2.65276,-83.3375l0.191339 -0.344882 -3.83268 -7.68544c-14.7331,-29.5465 -40.18,-50.3681 -69.3024,-60.1087 -29.0811,-9.72875 -61.8768,-8.413 -91.3642,6.29174l-124.46 62.0693 -62.0268 -124.377c-14.7343,-29.5465 -40.18,-50.367 -69.3036,-60.1075 -29.0764,-9.72639 -61.8638,-8.40946 -91.3418,6.28347l-0.0259843 0.00944883c-29.5453,14.7343 -50.3681,40.1835 -60.1087,69.3048 -9.72757,29.0788 -8.41418,61.8745 6.29174,91.3619l62.0693 124.465 -341.488 170.297 -62.0256 -124.375c-14.7343,-29.5465 -40.1811,-50.367 -69.3048,-60.1087 -26.4673,-8.85119 -56.0115,-8.55473 -83.3363,2.65394l-0.343701 -0.190158 -7.68544 3.8315c-29.5477,14.7343 -50.3693,40.1823 -60.1111,69.3048 -9.72757,29.0799 -8.413,61.8768 6.29292,91.3619l62.0693 124.463 -124.375 62.0256c-29.5477,14.7354 -50.3693,40.1823 -60.1099,69.3048 -9.72639,29.0799 -8.41064,61.8745 6.2941,91.3678 14.7343,29.5453 40.1811,50.367 69.3036,60.1087 29.0811,9.72875 61.8745,8.41418 91.3619,-6.29174l124.467 -62.0693 170.297 341.486 -124.377 62.0268c-29.5465,14.7354 -50.367,40.1811 -60.1063,69.3036 -9.7252,29.0788 -8.413,61.8756 6.2941,91.3678 14.7366,29.5465 40.18,50.367 69.3024,60.1099 29.0799,9.72639 61.8745,8.41182 91.3642,-6.29292l124.465 -62.0693 62.0245 124.373c14.7343,29.5488 40.18,50.3693 69.3024,60.1099 29.0811,9.72757 61.878,8.40946 91.3654,-6.2941l12.1949 -6.0815 -0.220866 -0.773623c23.2252,-15.1299 39.7701,-37.4327 48.137,-62.4485 9.72757,-29.0764 8.41418,-61.8733 -6.28937,-91.3642l-62.0693 -124.462 341.486 -170.297 62.0268 124.377c14.7331,29.5418 40.1776,50.3634 69.3024,60.104 29.0776,9.72639 61.8733,8.41064 91.3666,-6.2941 29.5465,-14.7343 50.3681,-40.1811 60.1099,-69.3036 9.72757,-29.0788 8.413,-61.8768 -6.29174,-91.3631l-62.0693 -124.462 124.375 -62.0245c29.5465,-14.7354 50.367,-40.18 60.1075,-69.3036 9.72639,-29.0788 8.40946,-61.8768 -6.2941,-91.3642l-6.0815 -12.1949 -0.774804 0.220866c-15.1299,-23.2264 -37.4315,-39.7713 -62.4473,-48.1382 -29.0788,-9.72757 -61.8733,-8.413 -91.3607,6.28819l-0.214961 0.10748 -124.25 61.963 -170.296 -341.488 124.371 -62.0245zm-316.924 139.913l184.827 370.623 7.24134 14.5217 -14.6114 7.28741 -370.622 184.828 -14.5217 7.24134 -7.28741 -14.6114 -184.828 -370.623 -7.24134 -14.5217 14.6114 -7.28859 370.622 -184.826 14.5217 -7.24253 7.28859 14.6114z"/></g><rect class="fil2" height="2048" width="2048"/></svg>