<?xml version="1.0" encoding="iso-8859-1"?>
<!-- Generator: Adobe Illustrator 19.0.0, SVG Export Plug-In . SVG Version: 6.00 Build 0)  -->
<svg version="1.1" id="Capa_1" xmlns="http://www.w3.org/2000/svg" xmlns:xlink="http://www.w3.org/1999/xlink" x="0px" y="0px"
	 viewBox="0 0 512 512" style="enable-background:new 0 0 512 512;" xml:space="preserve">
<g>
	<g>
		<path d="M492,356h-30v-80c0-11.046-8.954-20-20-20H276v-62.243c40.032-9.119,70-45.003,70-87.757c0-49.626-40.374-90-90-90
			c-49.626,0-90,40.374-90,90c0,42.754,29.968,78.638,70,87.757V256H70c-11.046,0-20,8.954-20,20v80H20c-11.046,0-20,8.954-20,20
			v100c0,11.046,8.954,20,20,20h100c11.046,0,20-8.954,20-20V376c0-11.046-8.954-20-20-20H90v-60h146v60h-30
			c-11.046,0-20,8.954-20,20v100c0,11.046,8.954,20,20,20h100c11.046,0,20-8.954,20-20V376c0-11.046-8.954-20-20-20h-30v-60h146v60
			h-30c-11.046,0-20,8.954-20,20v100c0,11.046,8.954,20,20,20h100c11.046,0,20-8.954,20-20V376C512,364.954,503.046,356,492,356z
			 M100,396v60H40v-60H100z M286,396v60h-60v-60H286z M256,156c-27.57,0-50-22.43-50-50s22.43-50,50-50s50,22.43,50,50
			S283.57,156,256,156z M472,456h-60v-60h60V456z"/>
	</g>
</g>
<g>
</g>
<g>
</g>
<g>
</g>
<g>
</g>
<g>
</g>
<g>
</g>
<g>
</g>
<g>
</g>
<g>
</g>
<g>
</g>
<g>
</g>
<g>
</g>
<g>
</g>
<g>
</g>
<g>
</g>
</svg>
